<svg xmlns="http://www.w3.org/2000/svg" viewBox="0 0 64 64">
  <rect width="64" height="64" rx="12" fill="#0ea5e9" />
  <g transform="translate(12,12)" fill="#fff">
    <path d="M6 30c0-11 9-20 20-20h6v-4h-6C10.7 6 2 14.7 2 24s8.7 18 18 18h6v-4h-6c-11 0-20-9-20-20z" opacity="0.12" />
    <path d="M16 10c-4 0-8 4-8 8v12c0 4 4 8 8 8h10V30H16V18h10V10H16z" />
  </g>
</svg>
<svg xmlns="http://www.w3.org/2000/svg" viewBox="0 0 100 100">
  <rect width="100" height="100" rx="18" fill="#2563eb" />
  <g fill="#fff" transform="translate(18,18)">
    <rect x="6" y="12" width="56" height="8" rx="2" />
    <rect x="6" y="30" width="36" height="8" rx="2" />
    <rect x="6" y="48" width="28" height="8" rx="2" />
  </g>
</svg>
