<svg width="512" height="512" viewBox="0 0 512 512" xmlns="http://www.w3.org/2000/svg" role="img" aria-label="PDF Maker AI logo">
  <defs>
    <linearGradient id="g" x1="0" y1="0" x2="1" y2="1">
      <stop offset="0%" stop-color="#4F46E5"/>
      <stop offset="100%" stop-color="#9333EA"/>
    </linearGradient>
    <linearGradient id="g2" x1="0" y1="0" x2="1" y2="0">
      <stop offset="0%" stop-color="#22d3ee"/>
      <stop offset="100%" stop-color="#a78bfa"/>
    </linearGradient>
  </defs>

  <!-- Badge -->
  <rect x="56" y="56" width="400" height="400" rx="36" fill="url(#g)"/>

  <!-- Folded page motif -->
  <path d="M168 168 h152 a24 24 0 0 1 24 24 v96 h-88 a28 28 0 0 1 -28 -28 v-92" fill="#fff" opacity="0.98"/>
  <path d="M248 188 v64 a24 24 0 0 0 24 24 h72" fill="none" stroke="#cfd2ff" stroke-width="10" stroke-linecap="round"/>
  <path d="M344 252 v-60 a24 24 0 0 0 -24 -24 h-60" fill="none" stroke="#ebeefe" stroke-width="10" stroke-linecap="round"/>

  <!-- AI spark nodes -->
  <circle cx="344" cy="252" r="8" fill="url(#g2)"/>
  <circle cx="248" cy="188" r="6" fill="url(#g2)"/>
  <circle cx="344" cy="188" r="6" fill="url(#g2)"/>

  <!-- Subtle PM monogram -->
  <g transform="translate(168,324)" fill="#ffffff" opacity="0.92">
    <path d="M0 0 h70 a26 26 0 1 1 0 52 h-20 v-18 h16 a8 8 0 0 0 0 -16 h-46 V0z"/>
    <path d="M104 0 h34 a30 30 0 0 1 0 60 h-12 v-18 h8 a12 12 0 0 0 0 -24 h-18 v42 h-12 V0z"/>
  </g>
</svg>
